<svg xmlns="http://www.w3.org/2000/svg" version="1.1" viewBox="2.77 46 248.17 173.87"><path d="M 146.500 47.594 C 130.482 51.152, 116.827 58.370, 105.172 69.441 C 84.637 88.947, 74.785 115.105, 77.930 141.770 C 80.237 161.327, 90.889 184.206, 100.979 191.273 C 106.128 194.879, 114.117 192.357, 116.635 186.330 C 118.593 181.645, 117.738 178.348, 112.883 171.855 C 107.679 164.897, 103.430 155.927, 101.541 147.912 C 99.767 140.386, 99.546 126.316, 101.084 118.799 C 102.732 110.746, 110.161 96.264, 115.961 89.797 C 130.015 74.128, 153.635 65.512, 173 68.990 C 187.901 71.666, 188.578 71.622, 192.475 67.725 C 199.603 60.597, 196.036 51.364, 184.977 48.315 C 176.861 46.078, 155.157 45.671, 146.500 47.594 M 225.388 84.929 C 221.999 86.380, 219 90.951, 219 94.663 C 219 96.530, 220.318 100.668, 221.929 103.858 C 226.543 112.999, 228.354 121.179, 228.383 133 C 228.427 151.156, 222.824 164.457, 209.618 177.547 C 200.380 186.704, 191.641 191.798, 179.300 195.218 C 171.656 197.336, 169.959 197.385, 94.297 197.629 C 40.935 197.802, 16.466 198.216, 15.058 198.969 C 13.937 199.569, 12.341 201.374, 11.510 202.980 C 7.472 210.789, 12.256 218.273, 22.053 219.475 C 25.049 219.842, 60.800 219.970, 101.500 219.758 C 174.100 219.380, 175.661 219.331, 184 217.152 C 238.313 202.962, 265.932 145.657, 242.600 95.567 C 240.789 91.680, 238.373 87.674, 237.231 86.665 C 234.832 84.545, 228.464 83.611, 225.388 84.929 M 37.314 92.950 C 33.481 95.287, 32 97.810, 32 102 C 32 105.761, 33.481 108.890, 36.367 111.228 C 38.160 112.680, 40.756 112.959, 52.673 112.978 C 66.437 112.999, 66.935 112.926, 69.889 110.440 C 73.788 107.159, 74.765 102.414, 72.516 97.674 C 69.932 92.229, 66.215 90.999, 52.349 91.004 C 42.381 91.007, 39.994 91.316, 37.314 92.950 M 10.514 118.168 C 4.493 122.904, 4.082 131.560, 9.669 135.955 C 12.123 137.885, 13.608 138, 36 138 C 58.080 138, 59.904 137.863, 62.230 136.034 C 68.335 131.232, 68.057 121.835, 61.696 117.956 C 58.777 116.177, 56.537 116.007, 35.885 116.004 C 14.197 116, 13.157 116.089, 10.514 118.168 M 22.315 143.434 C 16.642 145.954, 14.469 153.138, 17.566 159.128 C 20.209 164.239, 23.731 165, 44.718 164.998 C 66.289 164.997, 69.159 164.244, 72.330 157.756 C 74.522 153.269, 73.490 148.750, 69.393 144.897 C 66.892 142.545, 66.453 142.495, 46.172 142.260 C 30.106 142.073, 24.790 142.335, 22.315 143.434 M 7.898 169.285 C 1.688 173.460, 1.028 181.932, 6.538 186.750 C 9.053 188.949, 9.657 189, 32.979 189 L 56.847 189 59.889 186.440 C 63.788 183.159, 64.765 178.414, 62.516 173.674 C 59.622 167.576, 57.054 167, 32.747 167 C 12.063 167, 11.174 167.082, 7.898 169.285" stroke="none" fill="#242c64" fill-rule="evenodd"/><path d="M 219.095 49.797 C 217.118 51.885, 203.631 68.985, 189.125 87.797 C 174.619 106.608, 162.469 122.006, 162.125 122.014 C 161.781 122.021, 155.200 115.488, 147.500 107.494 C 133.664 93.132, 133.449 92.961, 129.150 92.981 C 125.550 92.997, 124.214 93.586, 121.400 96.400 C 118.641 99.159, 118 100.571, 118 103.894 C 118 107.542, 118.752 108.831, 124.910 115.744 C 128.710 120.010, 137.856 129.755, 145.234 137.400 L 158.648 151.300 163.323 150.773 C 165.895 150.483, 168.676 149.684, 169.503 148.998 C 170.330 148.311, 183.043 132.188, 197.753 113.168 C 241.388 56.752, 238 61.518, 238 56.560 C 238 53.142, 237.379 51.547, 235.099 49.106 C 232.640 46.474, 231.472 46, 227.444 46 C 223.238 46, 222.276 46.438, 219.095 49.797" stroke="none" fill="#f4642c" fill-rule="evenodd"/></svg>