<svg width="382" height="369" xmlns="http://www.w3.org/2000/svg"><g transform="matrix(1 0 0 1 191 184.5)"  ><g style=""   ><g transform="matrix(1 0 0 1 78.66 -59.7)"  ><path style="stroke: none; stroke-width: 1; stroke-dasharray: none; stroke-linecap: butt; stroke-dashoffset: 0; stroke-linejoin: miter; stroke-miterlimit: 4; fill: rgb(185,229,255); fill-rule: nonzero; opacity: 1;"  transform=" translate(-269.66, -124.8)" d="M 368.702 93.1531 L 352.612 177.331 C 350.362 176.017 348.024 174.862 345.612 173.875 C 346.586 166.729 346.234 162.761 344.72 160.509 C 344.94 160.136 345.094 159.726 345.172 159.299 C 345.362 158.296 345.148 157.258 344.574 156.413 C 343.998 155.569 343.112 154.987 342.11 154.796 C 341.106 154.605 340.068 154.821 339.224 155.395 C 338.378 155.969 337.796 156.856 337.606 157.859 C 337.586 157.975 337.566 158.097 337.552 158.211 C 334.572 159.549 332.618 164.113 330.65 169.589 L 330.61 169.989 C 318.48 168.544 306.206 171.025 295.59 177.069 C 294.772 162.607 299.822 143.623 295.366 137.269 C 295.594 136.896 295.75 136.483 295.826 136.053 C 295.932 135.502 295.916 134.934 295.778 134.39 C 295.642 133.846 295.388 133.338 295.034 132.903 C 294.68 132.467 294.236 132.114 293.732 131.868 C 293.226 131.622 292.674 131.489 292.114 131.479 C 291.552 131.469 290.996 131.582 290.484 131.81 C 289.97 132.037 289.514 132.374 289.144 132.797 C 288.776 133.22 288.504 133.718 288.346 134.257 C 288.19 134.796 288.154 135.363 288.24 135.917 C 278.14 141.975 276.492 179.739 263.342 177.617 C 250.104 175.473 269.724 121.693 259.9 109.545 C 260.202 109.111 260.406 108.617 260.5 108.097 C 260.594 107.6 260.592 107.09 260.488 106.595 C 260.386 106.1 260.188 105.629 259.904 105.211 C 259.62 104.793 259.256 104.434 258.834 104.157 C 258.41 103.879 257.938 103.687 257.442 103.592 C 256.944 103.497 256.434 103.501 255.938 103.603 C 255.444 103.706 254.974 103.905 254.554 104.189 C 254.136 104.473 253.778 104.836 253.5 105.259 C 253.222 105.681 253.03 106.154 252.936 106.651 C 252.868 107.003 252.85 107.362 252.882 107.719 C 238.312 115.087 237.508 193.775 216.51 190.253 C 195.89 186.797 218.72 124.533 208.62 112.181 C 208.694 111.986 208.75 111.786 208.79 111.581 C 208.884 111.084 208.882 110.573 208.778 110.077 C 208.676 109.582 208.476 109.111 208.192 108.692 C 207.908 108.274 207.544 107.915 207.12 107.637 C 206.698 107.359 206.224 107.167 205.728 107.072 C 205.23 106.977 204.718 106.981 204.224 107.084 C 203.728 107.186 203.256 107.385 202.838 107.67 C 202.42 107.954 202.06 108.318 201.782 108.741 C 201.504 109.164 201.312 109.638 201.218 110.135 C 201.184 110.318 201.164 110.503 201.156 110.689 C 186.872 116.965 178.96 168.379 170.624 167.271 L 191.272 59.2351 L 368.702 93.1531 Z M 238.324 77.7271 C 238.478 76.9219 238.39 76.0893 238.07 75.3345 C 237.752 74.5795 237.216 73.9363 236.53 73.4861 C 235.846 73.0357 235.042 72.7987 234.222 72.8047 C 233.404 72.8109 232.604 73.0599 231.926 73.5203 C 231.248 73.9809 230.722 74.6319 230.414 75.3915 C 230.106 76.1511 230.03 76.9849 230.196 77.7877 C 230.362 78.5903 230.762 79.3257 231.346 79.9009 C 231.93 80.4761 232.67 80.8653 233.476 81.0191 C 234.556 81.2215 235.67 80.9889 236.578 80.3723 C 237.486 79.7555 238.114 78.8047 238.324 77.7271 Z M 220.984 74.4071 C 221.138 73.6019 221.05 72.7693 220.73 72.0145 C 220.412 71.2595 219.876 70.6163 219.19 70.1661 C 218.506 69.7157 217.702 69.4787 216.882 69.4847 C 216.064 69.4909 215.264 69.7399 214.586 70.2003 C 213.908 70.6609 213.382 71.3119 213.074 72.0715 C 212.766 72.8311 212.69 73.6649 212.856 74.4677 C 213.022 75.2703 213.422 76.0057 214.006 76.5809 C 214.59 77.1561 215.33 77.5453 216.136 77.6991 C 217.216 77.9053 218.332 77.6743 219.242 77.0569 C 220.15 76.4397 220.778 75.4865 220.984 74.4071 Z M 203.648 71.0971 C 203.802 70.2923 203.712 69.4603 203.392 68.7063 C 203.074 67.9521 202.536 67.3097 201.852 66.8601 C 201.168 66.4105 200.364 66.1741 199.546 66.1807 C 198.726 66.1873 197.928 66.4365 197.25 66.8971 C 196.574 67.3575 196.048 68.0085 195.74 68.7677 C 195.432 69.5269 195.358 70.3601 195.524 71.1623 C 195.69 71.9643 196.09 72.6991 196.672 73.2739 C 197.256 73.8487 197.998 74.2373 198.802 74.3911 C 199.882 74.5951 200.998 74.3629 201.906 73.7453 C 202.814 73.1279 203.44 72.1757 203.648 71.0971 Z" stroke-linecap="round" /></g><g transform="matrix(1 0 0 1 141.24 50.59)"  ><path style="stroke: none; stroke-width: 1; stroke-dasharray: none; stroke-linecap: butt; stroke-dashoffset: 0; stroke-linejoin: miter; stroke-miterlimit: 4; fill: rgb(255,255,255); fill-rule: nonzero; opacity: 1;"  transform=" translate(-332.24, -235.09)" d="M 364.272 186.321 C 374.986 197.035 381.006 211.569 381.006 226.721 C 381.006 241.873 374.986 256.407 364.272 267.121 C 353.558 277.835 339.024 283.855 323.872 283.855 C 308.72 283.855 294.186 277.835 283.472 267.121 L 323.872 226.721 L 364.272 186.321 Z" stroke-linecap="round" /></g><g transform="matrix(1 0 0 1 132.87 13.65)"  ><path style="stroke: none; stroke-width: 1; stroke-dasharray: none; stroke-linecap: butt; stroke-dashoffset: 0; stroke-linejoin: miter; stroke-miterlimit: 4; fill: rgb(142,97,241); fill-rule: nonzero; opacity: 1;"  transform=" translate(-323.87, -198.15)" d="M 364.272 186.321 L 323.872 226.717 L 283.472 186.317 C 291.45 178.348 301.606 172.915 312.662 170.7 C 323.72 168.486 335.184 169.589 345.616 173.871 C 348.028 174.858 350.366 176.013 352.616 177.327 C 356.874 179.808 360.792 182.832 364.272 186.321 Z" stroke-linecap="round" /></g><g transform="matrix(1 0 0 1 147.39 -18.46)"  ><path style="stroke: none; stroke-width: 1; stroke-dasharray: none; stroke-linecap: butt; stroke-dashoffset: 0; stroke-linejoin: miter; stroke-miterlimit: 4; fill: rgb(185,229,255); fill-rule: nonzero; opacity: 1;"  transform=" translate(-338.39, -166.04)" d="M 344.73 160.509 C 346.244 162.761 346.596 166.729 345.622 173.875 C 340.822 171.902 335.776 170.594 330.622 169.987 L 330.662 169.587 C 332.63 164.111 334.584 159.547 337.564 158.209 C 337.48 159.084 337.698 159.962 338.182 160.696 C 338.666 161.43 339.386 161.977 340.222 162.245 C 341.06 162.514 341.964 162.488 342.784 162.172 C 343.604 161.855 344.292 161.268 344.732 160.507 L 344.73 160.509 Z" stroke-linecap="round" /></g><g transform="matrix(1 0 0 1 150.4 -26.88)"  ><path style="stroke: none; stroke-width: 1; stroke-dasharray: none; stroke-linecap: butt; stroke-dashoffset: 0; stroke-linejoin: miter; stroke-miterlimit: 4; fill: rgb(142,97,241); fill-rule: nonzero; opacity: 1;"  transform=" translate(-341.4, -157.62)" d="M 342.12 154.797 C 343.124 154.988 344.01 155.57 344.584 156.414 C 345.158 157.258 345.372 158.296 345.182 159.299 C 345.104 159.726 344.95 160.136 344.73 160.509 C 343.78 159.189 342.358 158.284 340.76 157.981 C 339.7 157.682 338.568 157.764 337.56 158.211 C 337.574 158.097 337.594 157.975 337.616 157.859 C 337.71 157.362 337.9 156.888 338.178 156.465 C 338.456 156.042 338.814 155.677 339.232 155.393 C 339.65 155.108 340.122 154.909 340.616 154.807 C 341.112 154.705 341.624 154.701 342.12 154.797 Z" stroke-linecap="round" /></g><g transform="matrix(1 0 0 1 150.14 -24.38)"  ><path style="stroke: none; stroke-width: 1; stroke-dasharray: none; stroke-linecap: butt; stroke-dashoffset: 0; stroke-linejoin: miter; stroke-miterlimit: 4; fill: rgb(142,97,241); fill-rule: nonzero; opacity: 1;"  transform=" translate(-341.14, -160.12)" d="M 344.73 160.509 C 344.29 161.27 343.602 161.857 342.782 162.173 C 341.962 162.49 341.058 162.515 340.22 162.247 C 339.384 161.979 338.664 161.432 338.18 160.698 C 337.696 159.964 337.478 159.086 337.562 158.211 C 338.57 157.763 339.702 157.682 340.762 157.981 C 342.36 158.285 343.78 159.19 344.73 160.509 Z" stroke-linecap="round" /></g><g transform="matrix(1 0 0 1 104.3 42.22)"  ><path style="stroke: none; stroke-width: 1; stroke-dasharray: none; stroke-linecap: butt; stroke-dashoffset: 0; stroke-linejoin: miter; stroke-miterlimit: 4; fill: rgb(211,193,250); fill-rule: nonzero; opacity: 1;"  transform=" translate(-295.3, -226.72)" d="M 323.872 226.717 L 283.472 267.117 C 278.164 261.813 273.954 255.515 271.08 248.583 C 268.208 241.651 266.728 234.221 266.728 226.717 C 266.728 219.213 268.208 211.783 271.08 204.851 C 273.954 197.919 278.164 191.621 283.472 186.317 L 323.872 226.717 Z" stroke-linecap="round" /></g><g transform="matrix(1 0 0 1 101.06 -50.12)"  ><path style="stroke: none; stroke-width: 1; stroke-dasharray: none; stroke-linecap: butt; stroke-dashoffset: 0; stroke-linejoin: miter; stroke-miterlimit: 4; fill: rgb(142,97,241); fill-rule: nonzero; opacity: 1;"  transform=" translate(-292.06, -134.38)" d="M 292.774 131.553 C 293.272 131.647 293.744 131.838 294.168 132.116 C 294.59 132.393 294.956 132.751 295.24 133.17 C 295.524 133.588 295.724 134.059 295.826 134.554 C 295.928 135.05 295.932 135.56 295.836 136.057 C 295.76 136.488 295.604 136.9 295.376 137.273 C 294.686 136.242 293.622 135.52 292.408 135.259 C 291.706 135.086 290.976 135.056 290.262 135.17 C 289.55 135.283 288.866 135.539 288.252 135.921 C 288.156 135.312 288.21 134.689 288.406 134.105 C 288.602 133.52 288.936 132.992 289.38 132.563 C 289.822 132.135 290.362 131.82 290.954 131.644 C 291.544 131.468 292.168 131.437 292.774 131.553 Z" stroke-linecap="round" /></g><g transform="matrix(1 0 0 1 40.01 -21.93)"  ><path style="stroke: none; stroke-width: 1; stroke-dasharray: none; stroke-linecap: butt; stroke-dashoffset: 0; stroke-linejoin: miter; stroke-miterlimit: 4; fill: rgb(185,229,255); fill-rule: nonzero; opacity: 1;"  transform=" translate(-231.01, -162.57)" d="M 295.376 137.273 C 299.832 143.621 294.776 162.605 295.6 177.073 C 288.212 181.287 281.856 187.095 276.996 194.075 C 272.136 201.053 268.892 209.029 267.502 217.419 L 231.922 210.619 L 164.788 197.787 L 169.954 170.751 L 170.624 167.277 C 178.96 168.385 186.87 116.971 201.174 110.697 C 201.134 111.615 201.424 112.517 201.992 113.24 C 202.558 113.963 203.366 114.459 204.266 114.639 C 205.168 114.82 206.104 114.672 206.904 114.223 C 207.706 113.774 208.322 113.053 208.638 112.191 C 218.738 124.543 195.908 186.807 216.528 190.263 C 237.528 193.785 238.328 115.097 252.9 107.729 C 252.972 108.517 253.286 109.263 253.798 109.866 C 254.308 110.469 254.994 110.899 255.76 111.099 C 256.524 111.299 257.332 111.257 258.074 110.981 C 258.814 110.705 259.452 110.207 259.9 109.555 C 269.724 121.703 250.1 175.483 263.342 177.627 C 276.492 179.749 278.142 141.985 288.242 135.927 C 288.362 136.714 288.722 137.444 289.276 138.016 C 289.828 138.589 290.544 138.976 291.326 139.125 C 292.108 139.273 292.916 139.175 293.64 138.845 C 294.364 138.514 294.966 137.967 295.366 137.279 L 295.376 137.273 Z" stroke-linecap="round" /></g><g transform="matrix(1 0 0 1 100.81 -47.36)"  ><path style="stroke: none; stroke-width: 1; stroke-dasharray: none; stroke-linecap: butt; stroke-dashoffset: 0; stroke-linejoin: miter; stroke-miterlimit: 4; fill: rgb(142,97,241); fill-rule: nonzero; opacity: 1;"  transform=" translate(-291.81, -137.14)" d="M 292.408 135.259 C 293.622 135.52 294.686 136.242 295.376 137.273 C 294.976 137.961 294.374 138.508 293.65 138.839 C 292.926 139.169 292.118 139.267 291.336 139.119 C 290.554 138.971 289.838 138.583 289.286 138.011 C 288.732 137.438 288.372 136.708 288.252 135.921 C 288.866 135.539 289.55 135.283 290.264 135.17 C 290.976 135.056 291.706 135.086 292.408 135.259 Z" stroke-linecap="round" /></g><g transform="matrix(1 0 0 1 65.73 -77.96)"  ><path style="stroke: none; stroke-width: 1; stroke-dasharray: none; stroke-linecap: butt; stroke-dashoffset: 0; stroke-linejoin: miter; stroke-miterlimit: 4; fill: rgb(142,97,241); fill-rule: nonzero; opacity: 1;"  transform=" translate(-256.73, -106.54)" d="M 257.456 103.593 C 258.46 103.786 259.346 104.369 259.92 105.214 C 260.494 106.059 260.71 107.097 260.52 108.101 C 260.422 108.622 260.214 109.116 259.91 109.549 C 258.966 108.347 257.614 107.534 256.11 107.263 C 255.016 107.047 253.882 107.209 252.892 107.723 C 252.86 107.366 252.878 107.007 252.946 106.655 C 253.04 106.157 253.232 105.683 253.51 105.26 C 253.788 104.837 254.146 104.472 254.566 104.188 C 254.984 103.903 255.456 103.704 255.952 103.602 C 256.448 103.5 256.958 103.497 257.456 103.593 Z" stroke-linecap="round" /></g><g transform="matrix(1 0 0 1 65.41 -75.31)"  ><path style="stroke: none; stroke-width: 1; stroke-dasharray: none; stroke-linecap: butt; stroke-dashoffset: 0; stroke-linejoin: miter; stroke-miterlimit: 4; fill: rgb(142,97,241); fill-rule: nonzero; opacity: 1;"  transform=" translate(-256.41, -109.19)" d="M 259.91 109.549 C 259.462 110.201 258.824 110.699 258.084 110.975 C 257.342 111.251 256.534 111.292 255.77 111.093 C 255.004 110.893 254.318 110.463 253.808 109.86 C 253.296 109.257 252.982 108.511 252.91 107.723 C 253.9 107.21 255.034 107.047 256.128 107.263 C 257.626 107.538 258.97 108.351 259.91 109.549 Z" stroke-linecap="round" /></g><g transform="matrix(1 0 0 1 43.26 -107.55)"  ><path style="stroke: none; stroke-width: 1; stroke-dasharray: none; stroke-linecap: butt; stroke-dashoffset: 0; stroke-linejoin: miter; stroke-miterlimit: 4; fill: rgb(255,255,255); fill-rule: nonzero; opacity: 1;"  transform=" translate(-234.26, -76.95)" d="M 235.032 72.8713 C 235.838 73.0243 236.58 73.4133 237.166 73.9887 C 237.752 74.5641 238.152 75.3003 238.32 76.1039 C 238.486 76.9075 238.41 77.7425 238.102 78.5031 C 237.794 79.2639 237.268 79.9161 236.588 80.3773 C 235.91 80.8385 235.11 81.0881 234.29 81.0943 C 233.468 81.1003 232.664 80.8631 231.978 80.4121 C 231.292 79.9611 230.756 79.3169 230.436 78.5609 C 230.118 77.8049 230.03 76.9713 230.184 76.1653 C 230.394 75.0873 231.02 74.1359 231.928 73.5187 C 232.838 72.9017 233.952 72.6689 235.032 72.8713 Z" stroke-linecap="round" /></g><g transform="matrix(1 0 0 1 25.91 -110.87)"  ><path style="stroke: none; stroke-width: 1; stroke-dasharray: none; stroke-linecap: butt; stroke-dashoffset: 0; stroke-linejoin: miter; stroke-miterlimit: 4; fill: rgb(255,255,255); fill-rule: nonzero; opacity: 1;"  transform=" translate(-216.91, -73.63)" d="M 217.69 69.5591 C 218.496 69.7125 219.236 70.1013 219.822 70.6763 C 220.406 71.2515 220.806 71.9867 220.972 72.7895 C 221.138 73.5921 221.062 74.4261 220.754 75.1859 C 220.448 75.9457 219.92 76.5971 219.242 77.0577 C 218.564 77.5183 217.766 77.7675 216.946 77.7737 C 216.126 77.7799 215.322 77.5429 214.638 77.0925 C 213.952 76.6423 213.416 75.9989 213.098 75.2439 C 212.778 74.4889 212.69 73.6561 212.844 72.8511 C 213.05 71.7721 213.676 70.8193 214.586 70.2019 C 215.494 69.5847 216.61 69.3533 217.69 69.5591 Z" stroke-linecap="round" /></g><g transform="matrix(1 0 0 1 14.52 97.56)"  ><path style="stroke: none; stroke-width: 1; stroke-dasharray: none; stroke-linecap: butt; stroke-dashoffset: 0; stroke-linejoin: miter; stroke-miterlimit: 4; fill: rgb(211,193,250); fill-rule: nonzero; opacity: 1;"  transform=" translate(-205.51, -282.06)" d="M 204.244 248.471 L 216.568 313.799 L 206.78 315.645 L 194.462 250.317 L 204.244 248.471 Z" stroke-linecap="round" /></g><g transform="matrix(1 0 0 1 14.02 -74.91)"  ><path style="stroke: none; stroke-width: 1; stroke-dasharray: none; stroke-linecap: butt; stroke-dashoffset: 0; stroke-linejoin: miter; stroke-miterlimit: 4; fill: rgb(142,97,241); fill-rule: nonzero; opacity: 1;"  transform=" translate(-205.02, -109.59)" d="M 205.744 107.073 C 206.748 107.266 207.634 107.849 208.208 108.695 C 208.782 109.54 208.998 110.579 208.808 111.583 C 208.768 111.788 208.712 111.988 208.638 112.183 C 207.766 111.081 206.506 110.353 205.116 110.147 C 203.778 109.939 202.406 110.128 201.174 110.689 C 201.182 110.503 201.202 110.318 201.236 110.135 C 201.428 109.132 202.012 108.246 202.856 107.671 C 203.702 107.097 204.74 106.882 205.744 107.073 Z" stroke-linecap="round" /></g><g transform="matrix(1 0 0 1 13.9 -72.11)"  ><path style="stroke: none; stroke-width: 1; stroke-dasharray: none; stroke-linecap: butt; stroke-dashoffset: 0; stroke-linejoin: miter; stroke-miterlimit: 4; fill: rgb(142,97,241); fill-rule: nonzero; opacity: 1;"  transform=" translate(-204.9, -112.39)" d="M 205.116 110.149 C 206.506 110.355 207.766 111.083 208.638 112.185 C 208.322 113.047 207.706 113.768 206.904 114.217 C 206.104 114.666 205.168 114.814 204.266 114.633 C 203.366 114.453 202.558 113.957 201.992 113.234 C 201.424 112.511 201.134 111.609 201.174 110.691 C 202.406 110.129 203.778 109.941 205.116 110.149 Z" stroke-linecap="round" /></g><g transform="matrix(1 0 0 1 5.01 47.2)"  ><path style="stroke: none; stroke-width: 1; stroke-dasharray: none; stroke-linecap: butt; stroke-dashoffset: 0; stroke-linejoin: miter; stroke-miterlimit: 4; fill: rgb(255,255,255); fill-rule: nonzero; opacity: 1;"  transform=" translate(-196.01, -231.7)" d="M 197.564 213.057 L 187.779 214.903 L 194.464 250.335 L 204.248 248.489 L 197.564 213.057 Z" stroke-linecap="round" /></g><g transform="matrix(1 0 0 1 8.58 -114.18)"  ><path style="stroke: none; stroke-width: 1; stroke-dasharray: none; stroke-linecap: butt; stroke-dashoffset: 0; stroke-linejoin: miter; stroke-miterlimit: 4; fill: rgb(255,255,255); fill-rule: nonzero; opacity: 1;"  transform=" translate(-199.58, -70.32)" d="M 200.356 66.2471 C 201.162 66.4005 201.902 66.7893 202.488 67.3643 C 203.072 67.9393 203.472 68.6747 203.638 69.4775 C 203.804 70.2801 203.728 71.1141 203.42 71.8739 C 203.114 72.6335 202.586 73.2849 201.908 73.7457 C 201.23 74.2063 200.432 74.4555 199.612 74.4617 C 198.792 74.4679 197.988 74.2307 197.304 73.7805 C 196.618 73.3301 196.082 72.6869 195.764 71.9319 C 195.444 71.1769 195.356 70.3441 195.51 69.5391 C 195.718 68.4609 196.344 67.5089 197.252 66.8919 C 198.162 66.2749 199.278 66.0429 200.356 66.2471 Z" stroke-linecap="round" /></g><g transform="matrix(1 0 0 1 -9.6 121.74)"  ><path style="stroke: none; stroke-width: 1; stroke-dasharray: none; stroke-linecap: butt; stroke-dashoffset: 0; stroke-linejoin: miter; stroke-miterlimit: 4; fill: rgb(211,193,250); fill-rule: nonzero; opacity: 1;"  transform=" translate(-181.4, -306.24)" d="M 183.706 291.619 L 188.876 319.019 L 188.876 319.025 L 179.094 320.865 L 173.922 293.463 L 183.706 291.619 Z" stroke-linecap="round" /></g><g transform="matrix(1 0 0 1 -19.09 71.37)"  ><path style="stroke: none; stroke-width: 1; stroke-dasharray: none; stroke-linecap: butt; stroke-dashoffset: 0; stroke-linejoin: miter; stroke-miterlimit: 4; fill: rgb(255,255,255); fill-rule: nonzero; opacity: 1;"  transform=" translate(-171.91, -255.87)" d="M 169.879 218.275 L 160.094 220.121 L 173.933 293.473 L 183.718 291.627 L 169.879 218.275 Z" stroke-linecap="round" /></g><g transform="matrix(1 0 0 1 -39.36 116.02)"  ><path style="stroke: none; stroke-width: 1; stroke-dasharray: none; stroke-linecap: butt; stroke-dashoffset: 0; stroke-linejoin: miter; stroke-miterlimit: 4; fill: rgb(211,193,250); fill-rule: nonzero; opacity: 1;"  transform=" translate(-151.64, -300.52)" d="M 151.89 274.947 L 161.186 324.245 L 151.402 326.091 L 142.1 276.793 L 151.882 274.947 L 151.89 274.947 Z" stroke-linecap="round" /></g><g transform="matrix(1 0 0 1 -48.86 65.64)"  ><path style="stroke: none; stroke-width: 1; stroke-dasharray: none; stroke-linecap: butt; stroke-dashoffset: 0; stroke-linejoin: miter; stroke-miterlimit: 4; fill: rgb(255,255,255); fill-rule: nonzero; opacity: 1;"  transform=" translate(-142.14, -250.14)" d="M 142.182 223.485 L 151.89 274.947 L 151.882 274.947 L 142.1 276.793 L 132.392 225.331 L 142.182 223.485 Z" stroke-linecap="round" /></g><g transform="matrix(1 0 0 1 -103.15 -83.98)"  ><path style="stroke: none; stroke-width: 1; stroke-dasharray: none; stroke-linecap: butt; stroke-dashoffset: 0; stroke-linejoin: miter; stroke-miterlimit: 4; fill: rgb(255,255,255); fill-rule: nonzero; opacity: 1;"  transform=" translate(-87.85, -100.52)" d="M 139.024 65.0709 C 141.991 76.3157 141.147 88.2269 136.624 98.9409 C 128.836 117.044 126.777 137.097 130.722 156.405 L 130.932 157.421 C 131.463 159.935 131.013 162.557 129.675 164.75 C 128.336 166.944 126.21 168.543 123.732 169.221 L 122.074 169.653 L 122.054 169.579 L 102.152 93.6209 C 100.706 101.381 96.324 101.341 92.612 98.6089 C 95.034 93.1329 94.54 84.2769 89.502 85.5949 C 84.128 86.9949 87.8 95.0669 92.612 98.6089 C 90.726 102.883 87.062 105.099 82.412 98.7929 L 102.31 174.761 L 102.33 174.829 L 101.046 175.167 C 100.243 175.367 99.4192 175.469 98.592 175.471 C 96.449 175.466 94.363 174.779 92.637 173.509 C 90.9108 172.239 89.6342 170.452 88.992 168.407 C 82.9772 149.302 71.2546 132.499 55.402 120.257 C 48.7608 115.101 43.444 108.437 39.8924 100.816 C 36.3408 93.1955 34.6566 84.8381 34.9794 76.4367 C 35.3022 68.0353 37.6228 59.8317 41.7486 52.5061 C 45.8746 45.1805 51.687 38.9437 58.7042 34.3127 C 65.7216 29.6817 73.7414 26.7897 82.0994 25.8767 C 90.4572 24.9637 98.9124 26.0559 106.764 29.0627 C 114.616 32.0695 121.638 36.9043 127.248 43.1663 C 132.858 49.4283 136.895 56.9373 139.024 65.0709 Z" stroke-linecap="round" /></g><g transform="matrix(1 0 0 1 -74.55 2.44)"  ><path style="stroke: none; stroke-width: 1; stroke-dasharray: none; stroke-linecap: butt; stroke-dashoffset: 0; stroke-linejoin: miter; stroke-miterlimit: 4; fill: rgb(211,193,250); fill-rule: nonzero; opacity: 1;"  transform=" translate(-116.45, -186.94)" d="M 133.92 182.367 C 134.091 183.011 134.134 183.682 134.044 184.342 C 133.955 185.002 133.736 185.637 133.4 186.213 C 133.064 186.787 132.617 187.291 132.086 187.693 C 131.554 188.093 130.949 188.387 130.304 188.553 L 105.16 195.137 C 104.516 195.305 103.845 195.345 103.185 195.255 C 102.526 195.163 101.891 194.943 101.316 194.607 C 100.742 194.271 100.239 193.823 99.8372 193.293 C 99.4354 192.763 99.142 192.157 98.974 191.513 C 98.8626 191.095 98.8062 190.663 98.806 190.229 C 98.8076 189.109 99.1798 188.021 99.8646 187.133 C 100.55 186.247 101.508 185.611 102.592 185.327 L 127.734 178.743 C 128.833 178.456 129.997 178.544 131.04 178.993 C 131.745 179.299 132.371 179.762 132.87 180.347 C 133.369 180.932 133.728 181.623 133.92 182.367 Z" stroke-linecap="round" /></g><g transform="matrix(1 0 0 1 -63.43 140.4)"  ><path style="stroke: none; stroke-width: 1; stroke-dasharray: none; stroke-linecap: butt; stroke-dashoffset: 0; stroke-linejoin: miter; stroke-miterlimit: 4; fill: rgb(211,193,250); fill-rule: nonzero; opacity: 1;"  transform=" translate(-127.57, -324.9)" d="M 131.422 318.473 L 121.636 320.317 L 123.712 331.325 L 133.497 329.481 L 131.422 318.473 Z" stroke-linecap="round" /></g><g transform="matrix(1 0 0 1 -73.46 11.31)"  ><path style="stroke: none; stroke-width: 1; stroke-dasharray: none; stroke-linecap: butt; stroke-dashoffset: 0; stroke-linejoin: miter; stroke-miterlimit: 4; fill: rgb(211,193,250); fill-rule: nonzero; opacity: 1;"  transform=" translate(-117.54, -195.81)" d="M 131.426 188.343 C 131.644 189.185 131.755 190.049 131.756 190.919 C 131.753 193.159 131.008 195.335 129.639 197.109 C 128.269 198.881 126.351 200.151 124.184 200.719 L 115.7 202.937 C 114.412 203.275 113.07 203.357 111.75 203.177 C 110.43 202.995 109.159 202.557 108.01 201.885 C 106.86 201.211 105.854 200.319 105.05 199.257 C 104.245 198.195 103.658 196.985 103.322 195.697 L 131.426 188.343 Z" stroke-linecap="round" /></g><g transform="matrix(1 0 0 1 -72.94 90.01)"  ><path style="stroke: none; stroke-width: 1; stroke-dasharray: none; stroke-linecap: butt; stroke-dashoffset: 0; stroke-linejoin: miter; stroke-miterlimit: 4; fill: rgb(255,255,255); fill-rule: nonzero; opacity: 1;"  transform=" translate(-118.06, -274.51)" d="M 114.49 228.711 L 131.418 318.465 L 121.636 320.311 L 104.7 230.557 L 114.49 228.711 Z" stroke-linecap="round" /></g><g transform="matrix(1 0 0 1 -77.14 -7.44)"  ><path style="stroke: none; stroke-width: 1; stroke-dasharray: none; stroke-linecap: butt; stroke-dashoffset: 0; stroke-linejoin: miter; stroke-miterlimit: 4; fill: rgb(211,193,250); fill-rule: nonzero; opacity: 1;"  transform=" translate(-113.86, -177.06)" d="M 131.338 172.475 C 131.445 172.895 131.499 173.327 131.5 173.761 C 131.5 174.883 131.129 175.973 130.444 176.861 C 129.759 177.749 128.799 178.385 127.714 178.669 L 102.572 185.253 C 101.806 185.455 101.003 185.475 100.229 185.307 C 99.4542 185.141 98.7302 184.793 98.116 184.293 C 97.5266 183.816 97.051 183.214 96.7234 182.53 C 96.3958 181.846 96.2246 181.097 96.222 180.339 C 96.2236 179.219 96.5958 178.13 97.2806 177.244 C 97.9654 176.357 98.9244 175.722 100.008 175.437 L 101.05 175.167 L 102.334 174.829 L 122.074 169.663 L 123.732 169.231 L 125.15 168.859 C 126.45 168.52 127.832 168.71 128.992 169.388 C 130.152 170.066 130.995 171.176 131.338 172.475 Z" stroke-linecap="round" /></g><g transform="matrix(1 0 0 1 -88.76 -50.27)"  ><path style="stroke: none; stroke-width: 1; stroke-dasharray: none; stroke-linecap: butt; stroke-dashoffset: 0; stroke-linejoin: miter; stroke-miterlimit: 4; fill: rgb(255,255,255); fill-rule: nonzero; opacity: 1;"  transform=" translate(-102.24, -134.23)" d="M 122.048 169.589 L 122.068 169.663 L 102.328 174.829 L 102.308 174.761 L 82.41 98.7931 C 87.062 105.099 90.726 102.883 92.61 98.6091 C 96.322 101.341 100.704 101.381 102.15 93.6211 L 122.048 169.589 Z" stroke-linecap="round" /></g><g transform="matrix(1 0 0 1 -100.57 -92.46)"  ><path style="stroke: none; stroke-width: 1; stroke-dasharray: none; stroke-linecap: butt; stroke-dashoffset: 0; stroke-linejoin: miter; stroke-miterlimit: 4; fill: rgb(255,255,255); fill-rule: nonzero; opacity: 1;"  transform=" translate(-90.43, -92.04)" d="M 89.502 85.5951 C 94.54 84.2771 95.034 93.1331 92.612 98.6091 C 87.8 95.0671 84.128 87.0011 89.502 85.5951 Z" stroke-linecap="round" /></g><g transform="matrix(1 0 0 1 -121.46 83.29)"  ><path style="stroke: none; stroke-width: 1; stroke-dasharray: none; stroke-linecap: butt; stroke-dashoffset: 0; stroke-linejoin: miter; stroke-miterlimit: 4; fill: rgb(211,193,250); fill-rule: nonzero; opacity: 1;"  transform=" translate(-69.54, -267.79)" d="M 79.842 260.451 C 81.058 266.905 79.6608 273.579 75.9576 279.005 C 72.2544 284.429 66.5484 288.161 60.094 289.381 L 58.81 282.559 C 62.133 281.933 65.2096 280.375 67.6804 278.065 C 70.151 275.757 71.9142 272.793 72.764 269.519 C 73.614 266.247 73.5154 262.799 72.4798 259.581 C 71.4444 256.361 69.5146 253.503 66.916 251.339 L 71.58 246.207 C 75.8864 249.867 78.8034 254.895 79.842 260.451 Z" stroke-linecap="round" /></g><g transform="matrix(1 0 0 1 -139.84 71.44)"  ><path style="stroke: none; stroke-width: 1; stroke-dasharray: none; stroke-linecap: butt; stroke-dashoffset: 0; stroke-linejoin: miter; stroke-miterlimit: 4; fill: rgb(255,255,255); fill-rule: nonzero; opacity: 1;"  transform=" translate(-51.16, -255.94)" d="M 71.58 246.207 L 66.916 251.339 C 63.9644 248.873 60.2942 247.429 56.4536 247.221 C 52.613 247.013 48.8084 248.053 45.608 250.187 C 42.4076 252.319 39.9832 255.431 38.697 259.055 C 37.4108 262.681 37.3318 266.623 38.472 270.297 L 38.362 270.331 L 31.63 271.603 C 31.446 270.953 31.298 270.297 31.17 269.629 C 30.2182 264.593 30.853 259.385 32.987 254.723 C 35.1208 250.063 38.6486 246.179 43.0834 243.609 C 47.5184 241.037 52.6416 239.907 57.7466 240.371 C 62.8514 240.837 67.6862 242.873 71.584 246.203 L 71.58 246.207 Z" stroke-linecap="round" /></g><g transform="matrix(1 0 0 1 -133.77 153.66)"  ><path style="stroke: none; stroke-width: 1; stroke-dasharray: none; stroke-linecap: butt; stroke-dashoffset: 0; stroke-linejoin: miter; stroke-miterlimit: 4; fill: rgb(142,97,241); fill-rule: nonzero; opacity: 1;"  transform=" translate(-57.23, -338.16)" d="M 65.462 330.911 L 67.538 341.911 L 48.994 345.413 L 46.918 334.405 L 65.462 330.911 Z" stroke-linecap="round" /></g><g transform="matrix(1 0 0 1 -136.87 137.26)"  ><path style="stroke: none; stroke-width: 1; stroke-dasharray: none; stroke-linecap: butt; stroke-dashoffset: 0; stroke-linejoin: miter; stroke-miterlimit: 4; fill: rgb(142,97,241); fill-rule: nonzero; opacity: 1;"  transform=" translate(-54.13, -321.76)" d="M 62.372 314.509 L 64.448 325.509 L 45.896 329.011 L 43.822 318.005 L 62.372 314.509 Z" stroke-linecap="round" /></g><g transform="matrix(1 0 0 1 -134.35 18.97)"  ><path style="stroke: none; stroke-width: 1; stroke-dasharray: none; stroke-linecap: butt; stroke-dashoffset: 0; stroke-linejoin: miter; stroke-miterlimit: 4; fill: rgb(255,255,255); fill-rule: nonzero; opacity: 1;"  transform=" translate(-56.65, -203.47)" d="M 61.528 202.561 C 61.708 203.525 61.5986 204.521 61.2132 205.421 C 60.8278 206.323 60.1838 207.091 59.3628 207.627 C 58.5416 208.161 57.5802 208.443 56.5998 208.431 C 55.6194 208.421 54.6642 208.121 53.8546 207.567 C 53.045 207.015 52.4176 206.235 52.0514 205.325 C 51.6852 204.415 51.5966 203.417 51.7972 202.457 C 51.9976 201.499 52.478 200.619 53.1776 199.933 C 53.8772 199.245 54.7648 198.781 55.728 198.599 C 56.369 198.477 57.0276 198.485 57.666 198.619 C 58.3046 198.751 58.9106 199.009 59.4492 199.377 C 59.9878 199.745 60.4486 200.217 60.8054 200.763 C 61.162 201.309 61.4076 201.919 61.528 202.561 Z" stroke-linecap="round" /></g><g transform="matrix(1 0 0 1 -139.96 120.86)"  ><path style="stroke: none; stroke-width: 1; stroke-dasharray: none; stroke-linecap: butt; stroke-dashoffset: 0; stroke-linejoin: miter; stroke-miterlimit: 4; fill: rgb(142,97,241); fill-rule: nonzero; opacity: 1;"  transform=" translate(-51.04, -305.36)" d="M 59.276 298.109 L 61.352 309.107 L 42.8 312.609 L 40.726 301.603 L 59.276 298.109 Z" stroke-linecap="round" /></g><g transform="matrix(1 0 0 1 -145.14 95.56)"  ><path style="stroke: none; stroke-width: 1; stroke-dasharray: none; stroke-linecap: butt; stroke-dashoffset: 0; stroke-linejoin: miter; stroke-miterlimit: 4; fill: rgb(142,97,241); fill-rule: nonzero; opacity: 1;"  transform=" translate(-45.86, -280.06)" d="M 58.81 282.559 L 60.094 289.381 C 53.984 290.533 47.6644 289.345 42.3904 286.051 C 37.1162 282.759 33.2738 277.603 31.626 271.607 L 38.358 270.335 L 38.468 270.301 C 39.7616 274.485 42.5502 278.047 46.3018 280.309 C 50.0534 282.569 54.5058 283.371 58.81 282.559 Z" stroke-linecap="round" /></g><g transform="matrix(1 0 0 1 -155.12 22.89)"  ><path style="stroke: none; stroke-width: 1; stroke-dasharray: none; stroke-linecap: butt; stroke-dashoffset: 0; stroke-linejoin: miter; stroke-miterlimit: 4; fill: rgb(255,255,255); fill-rule: nonzero; opacity: 1;"  transform=" translate(-35.88, -207.39)" d="M 40.758 206.475 C 40.9396 207.439 40.8316 208.435 40.4474 209.337 C 40.0632 210.239 39.4202 211.007 38.5994 211.545 C 37.7788 212.081 36.8174 212.363 35.8368 212.353 C 34.8562 212.345 33.9002 212.045 33.09 211.493 C 32.2796 210.939 31.6512 210.159 31.2842 209.251 C 30.9172 208.341 30.828 207.343 31.028 206.383 C 31.228 205.423 31.708 204.543 32.4074 203.855 C 33.107 203.169 33.9946 202.705 34.958 202.521 C 35.5984 202.399 36.2566 202.405 36.8948 202.539 C 37.533 202.671 38.1386 202.929 38.6772 203.297 C 39.2158 203.663 39.6768 204.133 40.034 204.679 C 40.391 205.225 40.637 205.835 40.758 206.475 Z" stroke-linecap="round" /></g><g transform="matrix(1 0 0 1 -175.89 26.81)"  ><path style="stroke: none; stroke-width: 1; stroke-dasharray: none; stroke-linecap: butt; stroke-dashoffset: 0; stroke-linejoin: miter; stroke-miterlimit: 4; fill: rgb(255,255,255); fill-rule: nonzero; opacity: 1;"  transform=" translate(-15.11, -211.31)" d="M 19.99 210.397 C 20.1702 211.361 20.0606 212.357 19.6752 213.257 C 19.2898 214.159 18.6458 214.927 17.8248 215.463 C 17.0038 215.997 16.0422 216.279 15.0618 216.267 C 14.0816 216.257 13.1262 215.957 12.3166 215.403 C 11.5071 214.851 10.8796 214.071 10.5134 213.161 C 10.1472 212.251 10.0587 211.253 10.2592 210.293 C 10.4597 209.335 10.94 208.455 11.6397 207.769 C 12.3392 207.081 13.2268 206.617 14.19 206.435 C 14.831 206.313 15.4898 206.319 16.1286 206.453 C 16.7672 206.587 17.3734 206.845 17.9122 207.213 C 18.451 207.581 18.9118 208.051 19.2684 208.597 C 19.625 209.145 19.8702 209.755 19.99 210.397 Z" stroke-linecap="round" /></g><g transform="matrix(1 0 0 1 -103.16 -83.98)"  ><path style="stroke: rgb(142,97,241); stroke-width: 0.676; stroke-dasharray: none; stroke-linecap: round; stroke-dashoffset: 0; stroke-linejoin: round; stroke-miterlimit: 4; fill: none; fill-rule: nonzero; opacity: 1;"  transform=" translate(-87.84, -100.52)" d="M 123.726 169.231 C 126.204 168.553 128.33 166.954 129.668 164.761 C 131.007 162.567 131.457 159.945 130.926 157.431 L 130.716 156.415 C 126.771 137.107 128.83 117.054 136.618 98.9511 C 140.44 89.8489 141.639 79.8587 140.08 70.1103 C 138.52 60.3621 134.263 51.2447 127.792 43.7897 C 121.32 36.3345 112.891 30.8389 103.459 27.9245 C 94.0268 25.0101 83.9672 24.7933 74.418 27.2983 C 64.869 29.8035 56.2112 34.9305 49.4242 42.0999 C 42.6374 49.2691 37.9918 58.1945 36.0134 67.8665 C 34.0348 77.5385 34.802 87.5711 38.2286 96.8297 C 41.655 106.088 47.6036 114.204 55.402 120.257 C 71.251 132.5 82.9698 149.304 88.982 168.407 C 89.624 170.452 90.9008 172.239 92.627 173.509 C 94.353 174.779 96.4388 175.466 98.582 175.471 C 99.4092 175.469 100.233 175.367 101.036 175.167" stroke-linecap="round" /></g><g transform="matrix(1 0 0 1 -77.14 -7.44)"  ><path style="stroke: rgb(142,97,241); stroke-width: 0.676; stroke-dasharray: none; stroke-linecap: round; stroke-dashoffset: 0; stroke-linejoin: round; stroke-miterlimit: 4; fill: none; fill-rule: nonzero; opacity: 1;"  transform=" translate(-113.86, -177.06)" d="M 98.11 184.297 C 97.5206 183.82 97.045 183.218 96.7174 182.534 C 96.3898 181.85 96.2186 181.101 96.216 180.343 C 96.2176 179.223 96.5898 178.134 97.2746 177.248 C 97.9594 176.361 98.9184 175.726 100.002 175.441 L 101.044 175.171 L 102.328 174.833 L 122.068 169.667 L 123.726 169.235 L 125.144 168.863 C 125.789 168.693 126.46 168.652 127.121 168.742 C 127.781 168.832 128.417 169.051 128.993 169.387 C 129.569 169.722 130.073 170.168 130.476 170.699 C 130.88 171.23 131.174 171.835 131.344 172.479 C 131.451 172.9 131.505 173.331 131.506 173.765 C 131.506 174.887 131.135 175.977 130.45 176.865 C 129.765 177.753 128.805 178.389 127.72 178.673 L 102.572 185.253 C 101.806 185.455 101.003 185.475 100.229 185.307 C 99.4542 185.141 98.7302 184.793 98.116 184.293" stroke-linecap="round" /></g><g transform="matrix(1 0 0 1 -78.9 -52.89)"  ><path style="stroke: rgb(142,97,241); stroke-width: 0.676; stroke-dasharray: none; stroke-linecap: round; stroke-dashoffset: 0; stroke-linejoin: round; stroke-miterlimit: 4; fill: none; fill-rule: nonzero; opacity: 1;"  transform=" translate(-112.1, -131.61)" d="M 102.152 93.6211 L 122.048 169.589" stroke-linecap="round" /></g><g transform="matrix(1 0 0 1 -93.62 -87.55)"  ><path style="stroke: rgb(142,97,241); stroke-width: 0.676; stroke-dasharray: none; stroke-linecap: round; stroke-dashoffset: 0; stroke-linejoin: round; stroke-miterlimit: 4; fill: none; fill-rule: nonzero; opacity: 1;"  transform=" translate(-97.38, -96.95)" d="M 92.612 98.6091 C 96.324 101.341 100.706 101.381 102.152 93.6211" stroke-linecap="round" /></g><g transform="matrix(1 0 0 1 -100.57 -92.46)"  ><path style="stroke: rgb(142,97,241); stroke-width: 0.676; stroke-dasharray: none; stroke-linecap: round; stroke-dashoffset: 0; stroke-linejoin: round; stroke-miterlimit: 4; fill: none; fill-rule: nonzero; opacity: 1;"  transform=" translate(-90.43, -92.04)" d="M 92.612 98.6091 C 95.034 93.1331 94.54 84.2771 89.502 85.5951 C 84.128 87.0011 87.8 95.0671 92.612 98.6091 Z" stroke-linecap="round" /></g><g transform="matrix(1 0 0 1 -98.64 -47.81)"  ><path style="stroke: rgb(142,97,241); stroke-width: 0.676; stroke-dasharray: none; stroke-linecap: round; stroke-dashoffset: 0; stroke-linejoin: round; stroke-miterlimit: 4; fill: none; fill-rule: nonzero; opacity: 1;"  transform=" translate(-92.36, -136.69)" d="M 102.308 174.761 L 82.41 98.7931 C 87.062 105.099 90.726 102.883 92.61 98.6091" stroke-linecap="round" /></g><g transform="matrix(1 0 0 1 -74.55 2.44)"  ><path style="stroke: rgb(142,97,241); stroke-width: 0.676; stroke-dasharray: none; stroke-linecap: round; stroke-dashoffset: 0; stroke-linejoin: round; stroke-miterlimit: 4; fill: none; fill-rule: nonzero; opacity: 1;"  transform=" translate(-116.45, -186.94)" d="M 131.04 178.993 C 132.007 179.414 132.819 180.126 133.363 181.029 C 133.906 181.933 134.155 182.984 134.074 184.035 C 133.993 185.087 133.587 186.087 132.911 186.897 C 132.235 187.707 131.324 188.285 130.304 188.553 L 105.16 195.137 C 104.516 195.305 103.845 195.345 103.185 195.255 C 102.526 195.163 101.891 194.943 101.316 194.607 C 100.742 194.271 100.239 193.823 99.8372 193.293 C 99.4354 192.763 99.142 192.157 98.974 191.513 C 98.8626 191.095 98.8062 190.663 98.806 190.229 C 98.8076 189.109 99.1798 188.021 99.8646 187.133 C 100.55 186.247 101.508 185.611 102.592 185.327 L 127.734 178.743 C 128.833 178.456 129.997 178.544 131.04 178.993 Z" stroke-linecap="round" /></g><g transform="matrix(1 0 0 1 -73.46 11.31)"  ><path style="stroke: rgb(142,97,241); stroke-width: 0.676; stroke-dasharray: none; stroke-linecap: round; stroke-dashoffset: 0; stroke-linejoin: round; stroke-miterlimit: 4; fill: none; fill-rule: nonzero; opacity: 1;"  transform=" translate(-117.54, -195.81)" d="M 124.184 200.721 L 115.7 202.939 C 114.412 203.277 113.07 203.359 111.75 203.179 C 110.43 202.997 109.159 202.559 108.01 201.887 C 106.86 201.213 105.854 200.321 105.05 199.259 C 104.245 198.197 103.658 196.987 103.322 195.699 L 131.426 188.343 C 131.644 189.185 131.755 190.049 131.756 190.919 C 131.753 193.159 131.009 195.337 129.639 197.109 C 128.27 198.883 126.351 200.153 124.184 200.721 Z" stroke-linecap="round" /></g><g transform="matrix(1 0 0 1 133.09 41.69)"  ><path style="stroke: rgb(142,97,241); stroke-width: 0.676; stroke-dasharray: none; stroke-linecap: round; stroke-dashoffset: 0; stroke-linejoin: round; stroke-miterlimit: 4; fill: none; fill-rule: nonzero; opacity: 1;"  transform=" translate(-324.09, -226.19)" d="M 352.612 177.337 C 365.278 184.73 374.576 196.753 378.548 210.869 C 382.52 224.987 380.856 240.093 373.904 253.007 C 366.954 265.919 355.258 275.629 341.288 280.085 C 327.316 284.543 312.16 283.401 299.014 276.899 C 285.87 270.399 275.762 259.047 270.826 245.237 C 265.888 231.429 266.506 216.241 272.55 202.879 C 278.594 189.519 289.59 179.025 303.22 173.614 C 316.85 168.203 332.05 168.297 345.612 173.875 C 348.024 174.862 350.362 176.017 352.612 177.331" stroke-linecap="round" /></g><g transform="matrix(1 0 0 1 -40.65 -10.06)"  ><path style="stroke: rgb(142,97,241); stroke-width: 0.676; stroke-dasharray: none; stroke-linecap: round; stroke-dashoffset: 0; stroke-linejoin: round; stroke-miterlimit: 4; fill: none; fill-rule: nonzero; opacity: 1;"  transform=" translate(-150.35, -174.44)" d="M 130.75 178.141 L 130.878 178.115 L 169.954 170.745" stroke-linecap="round" /></g><g transform="matrix(1 0 0 1 -63.58 91.94)"  ><path style="stroke: rgb(142,97,241); stroke-width: 0.676; stroke-dasharray: none; stroke-linecap: round; stroke-dashoffset: 0; stroke-linejoin: round; stroke-miterlimit: 4; fill: none; fill-rule: nonzero; opacity: 1;"  transform=" translate(-127.42, -276.44)" d="M 231.922 210.613 L 253.832 326.787 L 32.302 368.581 L 1 202.615 L 98.11 184.293 L 98.116 184.293" stroke-linecap="round" /></g><g transform="matrix(1 0 0 1 -96.27 26.04)"  ><path style="stroke: rgb(142,97,241); stroke-width: 0.676; stroke-dasharray: none; stroke-linecap: round; stroke-dashoffset: 0; stroke-linejoin: round; stroke-miterlimit: 4; fill: none; fill-rule: nonzero; opacity: 1;"  transform=" translate(-94.73, -210.54)" d="M 28.854 222.971 L 160.61 198.113" stroke-linecap="round" /></g><g transform="matrix(1 0 0 1 -175.89 26.81)"  ><path style="stroke: rgb(142,97,241); stroke-width: 0.676; stroke-dasharray: none; stroke-linecap: round; stroke-dashoffset: 0; stroke-linejoin: round; stroke-miterlimit: 4; fill: none; fill-rule: nonzero; opacity: 1;"  transform=" translate(-15.11, -211.31)" d="M 19.99 210.397 C 20.1702 211.361 20.0606 212.357 19.6752 213.257 C 19.2898 214.159 18.6458 214.927 17.8248 215.463 C 17.0038 215.997 16.0422 216.279 15.0618 216.267 C 14.0816 216.257 13.1262 215.957 12.3166 215.403 C 11.5071 214.851 10.8796 214.071 10.5134 213.161 C 10.1472 212.251 10.0587 211.253 10.2592 210.293 C 10.4597 209.335 10.94 208.455 11.6397 207.769 C 12.3392 207.081 13.2268 206.617 14.19 206.435 C 14.831 206.313 15.4898 206.319 16.1286 206.453 C 16.7672 206.587 17.3734 206.845 17.9122 207.213 C 18.451 207.581 18.9118 208.051 19.2684 208.597 C 19.625 209.145 19.8702 209.755 19.99 210.397 Z" stroke-linecap="round" /></g><g transform="matrix(1 0 0 1 -155.12 22.89)"  ><path style="stroke: rgb(142,97,241); stroke-width: 0.676; stroke-dasharray: none; stroke-linecap: round; stroke-dashoffset: 0; stroke-linejoin: round; stroke-miterlimit: 4; fill: none; fill-rule: nonzero; opacity: 1;"  transform=" translate(-35.88, -207.39)" d="M 40.758 206.475 C 40.9396 207.439 40.8316 208.435 40.4474 209.337 C 40.0632 210.239 39.4202 211.007 38.5994 211.545 C 37.7788 212.081 36.8174 212.363 35.8368 212.353 C 34.8562 212.345 33.9002 212.045 33.09 211.493 C 32.2796 210.939 31.6512 210.159 31.2842 209.251 C 30.9172 208.341 30.828 207.343 31.028 206.383 C 31.228 205.423 31.708 204.543 32.4074 203.855 C 33.107 203.169 33.9946 202.705 34.958 202.521 C 35.5984 202.399 36.2566 202.405 36.8948 202.539 C 37.533 202.671 38.1386 202.929 38.6772 203.297 C 39.2158 203.663 39.6768 204.133 40.034 204.679 C 40.391 205.225 40.637 205.835 40.758 206.475 Z" stroke-linecap="round" /></g><g transform="matrix(1 0 0 1 -134.35 18.97)"  ><path style="stroke: rgb(142,97,241); stroke-width: 0.676; stroke-dasharray: none; stroke-linecap: round; stroke-dashoffset: 0; stroke-linejoin: round; stroke-miterlimit: 4; fill: none; fill-rule: nonzero; opacity: 1;"  transform=" translate(-56.65, -203.47)" d="M 61.528 202.561 C 61.708 203.525 61.5986 204.521 61.2132 205.421 C 60.8278 206.323 60.1838 207.091 59.3628 207.627 C 58.5416 208.161 57.5802 208.443 56.5998 208.431 C 55.6194 208.421 54.6642 208.121 53.8546 207.567 C 53.045 207.015 52.4176 206.235 52.0514 205.325 C 51.6852 204.415 51.5966 203.417 51.7972 202.457 C 51.9976 201.499 52.478 200.619 53.1776 199.933 C 53.8772 199.245 54.7648 198.781 55.728 198.599 C 56.369 198.477 57.0276 198.485 57.666 198.619 C 58.3046 198.751 58.9106 199.009 59.4492 199.377 C 59.9878 199.745 60.4486 200.217 60.8054 200.763 C 61.162 201.309 61.4076 201.919 61.528 202.561 Z" stroke-linecap="round" /></g><g transform="matrix(1 0 0 1 75.75 -46.18)"  ><path style="stroke: rgb(142,97,241); stroke-width: 0.676; stroke-dasharray: none; stroke-linecap: round; stroke-dashoffset: 0; stroke-linejoin: round; stroke-miterlimit: 4; fill: none; fill-rule: nonzero; opacity: 1;"  transform=" translate(-266.75, -138.32)" d="M 267.502 217.413 L 231.922 210.613 L 164.788 197.781 L 169.954 170.745 L 170.624 167.271 L 191.27 59.2351 L 368.702 93.1531 L 352.612 177.331 L 352.612 177.337" stroke-linecap="round" /></g><g transform="matrix(1 0 0 1 86.88 -89)"  ><path style="stroke: rgb(142,97,241); stroke-width: 0.676; stroke-dasharray: none; stroke-linecap: round; stroke-dashoffset: 0; stroke-linejoin: round; stroke-miterlimit: 4; fill: none; fill-rule: nonzero; opacity: 1;"  transform=" translate(-277.88, -95.5)" d="M 207.3 82.0051 L 348.468 108.987" stroke-linecap="round" /></g><g transform="matrix(1 0 0 1 8.58 -114.18)"  ><path style="stroke: rgb(142,97,241); stroke-width: 0.676; stroke-dasharray: none; stroke-linecap: round; stroke-dashoffset: 0; stroke-linejoin: round; stroke-miterlimit: 4; fill: none; fill-rule: nonzero; opacity: 1;"  transform=" translate(-199.58, -70.32)" d="M 203.648 71.0971 C 203.494 71.9017 203.106 72.6427 202.53 73.2263 C 201.956 73.8099 201.22 74.2099 200.418 74.3759 C 199.616 74.5417 198.782 74.4661 198.024 74.1583 C 197.264 73.8507 196.614 73.3247 196.154 72.6471 C 195.694 71.9695 195.444 71.1707 195.438 70.3515 C 195.432 69.5325 195.668 68.7297 196.118 68.0451 C 196.568 67.3605 197.21 66.8247 197.964 66.5053 C 198.72 66.1861 199.552 66.0975 200.356 66.2511 C 200.89 66.3531 201.4 66.5593 201.854 66.8581 C 202.308 67.1567 202.7 67.5421 203.006 67.9921 C 203.312 68.4421 203.526 68.9479 203.636 69.4807 C 203.746 70.0135 203.75 70.5627 203.648 71.0971 Z" stroke-linecap="round" /></g><g transform="matrix(1 0 0 1 25.91 -110.87)"  ><path style="stroke: rgb(142,97,241); stroke-width: 0.676; stroke-dasharray: none; stroke-linecap: round; stroke-dashoffset: 0; stroke-linejoin: round; stroke-miterlimit: 4; fill: none; fill-rule: nonzero; opacity: 1;"  transform=" translate(-216.91, -73.63)" d="M 220.984 74.4071 C 220.83 75.2121 220.442 75.9535 219.866 76.5375 C 219.292 77.1215 218.556 77.5217 217.754 77.6879 C 216.95 77.8539 216.116 77.7783 215.358 77.4705 C 214.598 77.1627 213.946 76.6367 213.486 75.9587 C 213.026 75.2809 212.776 74.4815 212.77 73.6621 C 212.764 72.8425 213 72.0395 213.45 71.3545 C 213.9 70.6695 214.544 70.1333 215.298 69.8137 C 216.052 69.4943 216.884 69.4057 217.69 69.5591 C 218.226 69.6605 218.734 69.8663 219.19 70.1649 C 219.646 70.4635 220.038 70.8491 220.344 71.2995 C 220.65 71.7499 220.864 72.2561 220.974 72.7895 C 221.084 73.3227 221.086 73.8725 220.984 74.4071 Z" stroke-linecap="round" /></g><g transform="matrix(1 0 0 1 43.25 -107.56)"  ><path style="stroke: rgb(142,97,241); stroke-width: 0.676; stroke-dasharray: none; stroke-linecap: round; stroke-dashoffset: 0; stroke-linejoin: round; stroke-miterlimit: 4; fill: none; fill-rule: nonzero; opacity: 1;"  transform=" translate(-234.25, -76.94)" d="M 238.324 77.7271 C 238.168 78.5313 237.778 79.2717 237.202 79.8545 C 236.626 80.4371 235.892 80.8361 235.088 81.0009 C 234.286 81.1657 233.452 81.0889 232.694 80.7803 C 231.936 80.4717 231.284 79.9449 230.826 79.2669 C 230.366 78.5887 230.116 77.7897 230.112 76.9705 C 230.106 76.1513 230.342 75.3487 230.792 74.6643 C 231.244 73.9799 231.886 73.4441 232.64 73.1249 C 233.396 72.8059 234.228 72.7175 235.032 72.8711 C 236.112 73.0793 237.066 73.7077 237.682 74.6181 C 238.3 75.5285 238.53 76.6467 238.324 77.7271 Z" stroke-linecap="round" /></g><g transform="matrix(1 0 0 1 154.45 -17.31)"  ><path style="stroke: rgb(142,97,241); stroke-width: 0.676; stroke-dasharray: none; stroke-linecap: round; stroke-dashoffset: 0; stroke-linejoin: round; stroke-miterlimit: 4; fill: none; fill-rule: nonzero; opacity: 1;"  transform=" translate(-345.45, -167.19)" d="M 344.73 160.509 C 346.244 162.761 346.596 166.729 345.622 173.875" stroke-linecap="round" /></g><g transform="matrix(1 0 0 1 143.11 -20.6)"  ><path style="stroke: rgb(142,97,241); stroke-width: 0.676; stroke-dasharray: none; stroke-linecap: round; stroke-dashoffset: 0; stroke-linejoin: round; stroke-miterlimit: 4; fill: none; fill-rule: nonzero; opacity: 1;"  transform=" translate(-334.11, -163.9)" d="M 330.66 169.589 C 332.628 164.113 334.582 159.549 337.562 158.211" stroke-linecap="round" /></g><g transform="matrix(1 0 0 1 105.31 -27.33)"  ><path style="stroke: rgb(142,97,241); stroke-width: 0.676; stroke-dasharray: none; stroke-linecap: round; stroke-dashoffset: 0; stroke-linejoin: round; stroke-miterlimit: 4; fill: none; fill-rule: nonzero; opacity: 1;"  transform=" translate(-296.31, -157.17)" d="M 295.376 137.273 C 299.832 143.621 294.776 162.605 295.6 177.073" stroke-linecap="round" /></g><g transform="matrix(1 0 0 1 82.42 -40.87)"  ><path style="stroke: rgb(142,97,241); stroke-width: 0.676; stroke-dasharray: none; stroke-linecap: round; stroke-dashoffset: 0; stroke-linejoin: round; stroke-miterlimit: 4; fill: none; fill-rule: nonzero; opacity: 1;"  transform=" translate(-273.42, -143.63)" d="M 259.91 109.549 C 269.734 121.697 250.11 175.477 263.352 177.621 C 276.502 179.743 278.152 141.979 288.252 135.921" stroke-linecap="round" /></g><g transform="matrix(1 0 0 1 39.23 -35.45)"  ><path style="stroke: rgb(142,97,241); stroke-width: 0.676; stroke-dasharray: none; stroke-linecap: round; stroke-dashoffset: 0; stroke-linejoin: round; stroke-miterlimit: 4; fill: none; fill-rule: nonzero; opacity: 1;"  transform=" translate(-230.23, -149.05)" d="M 208.638 112.185 C 218.738 124.537 195.908 186.801 216.528 190.257 C 237.528 193.779 238.328 115.091 252.9 107.723" stroke-linecap="round" /></g><g transform="matrix(1 0 0 1 -5.1 -45.51)"  ><path style="stroke: rgb(142,97,241); stroke-width: 0.676; stroke-dasharray: none; stroke-linecap: round; stroke-dashoffset: 0; stroke-linejoin: round; stroke-miterlimit: 4; fill: none; fill-rule: nonzero; opacity: 1;"  transform=" translate(-185.9, -138.99)" d="M 170.624 167.271 C 178.96 168.379 186.87 116.965 201.174 110.691" stroke-linecap="round" /></g><g transform="matrix(1 0 0 1 -135.5 80.54)"  ><path style="stroke: rgb(142,97,241); stroke-width: 0.676; stroke-dasharray: none; stroke-linecap: round; stroke-dashoffset: 0; stroke-linejoin: round; stroke-miterlimit: 4; fill: none; fill-rule: nonzero; opacity: 1;"  transform=" translate(-55.5, -265.04)" d="M 71.58 246.207 C 74.527 248.723 76.8428 251.893 78.3414 255.467 C 79.8398 259.039 80.479 262.913 80.2078 266.779 C 79.9364 270.643 78.762 274.391 76.779 277.719 C 74.796 281.047 72.0598 283.863 68.7902 285.943 C 65.5208 288.021 61.809 289.303 57.9538 289.687 C 54.0984 290.069 50.207 289.543 46.5922 288.149 C 42.9776 286.755 39.7404 284.531 37.141 281.659 C 34.5418 278.785 32.6528 275.343 31.626 271.607 C 31.442 270.957 31.294 270.301 31.166 269.633 C 30.2142 264.597 30.849 259.389 32.983 254.727 C 35.1168 250.067 38.6446 246.183 43.0794 243.613 C 47.5144 241.041 52.6376 239.911 57.7426 240.375 C 62.8474 240.841 67.6824 242.877 71.58 246.207 Z" stroke-linecap="round" /></g><g transform="matrix(1 0 0 1 -135.5 80.54)"  ><path style="stroke: rgb(142,97,241); stroke-width: 0.676; stroke-dasharray: none; stroke-linecap: round; stroke-dashoffset: 0; stroke-linejoin: round; stroke-miterlimit: 4; fill: none; fill-rule: nonzero; opacity: 1;"  transform=" translate(-55.5, -265.04)" d="M 66.916 251.339 C 70.0306 253.933 72.1688 257.509 72.9786 261.481 C 73.7884 265.451 73.2214 269.581 71.3708 273.187 C 69.5204 276.793 66.4968 279.661 62.7982 281.319 C 59.0998 282.975 54.947 283.325 51.024 282.305 C 47.101 281.287 43.6418 278.963 41.2162 275.717 C 38.7908 272.469 37.5436 268.493 37.6804 264.443 C 37.817 260.391 39.3294 256.509 41.9684 253.433 C 44.6072 250.355 48.2152 248.271 52.198 247.519 C 54.781 247.025 57.4418 247.111 59.9874 247.771 C 62.533 248.431 64.8996 249.651 66.916 251.339 Z" stroke-linecap="round" /></g><g transform="matrix(1 0 0 1 -131.55 101.47)"  ><path style="stroke: rgb(142,97,241); stroke-width: 0.676; stroke-dasharray: none; stroke-linecap: round; stroke-dashoffset: 0; stroke-linejoin: round; stroke-miterlimit: 4; fill: none; fill-rule: nonzero; opacity: 1;"  transform=" translate(-59.45, -285.97)" d="M 58.81 282.559 L 60.094 289.381" stroke-linecap="round" /></g><g transform="matrix(1 0 0 1 -121.75 64.27)"  ><path style="stroke: rgb(142,97,241); stroke-width: 0.676; stroke-dasharray: none; stroke-linecap: round; stroke-dashoffset: 0; stroke-linejoin: round; stroke-miterlimit: 4; fill: none; fill-rule: nonzero; opacity: 1;"  transform=" translate(-69.25, -248.77)" d="M 66.916 251.339 L 71.58 246.207" stroke-linecap="round" /></g><g transform="matrix(1 0 0 1 -156.05 86.48)"  ><path style="stroke: rgb(142,97,241); stroke-width: 0.676; stroke-dasharray: none; stroke-linecap: round; stroke-dashoffset: 0; stroke-linejoin: round; stroke-miterlimit: 4; fill: none; fill-rule: nonzero; opacity: 1;"  transform=" translate(-34.95, -270.98)" d="M 38.358 270.335 L 31.626 271.607 L 31.544 271.621" stroke-linecap="round" /></g><g transform="matrix(1 0 0 1 35.77 78.07)"  ><path style="stroke: rgb(142,97,241); stroke-width: 0.676; stroke-dasharray: none; stroke-linecap: round; stroke-dashoffset: 0; stroke-linejoin: round; stroke-miterlimit: 4; fill: none; fill-rule: nonzero; opacity: 1;"  transform=" translate(-226.77, -262.57)" d="M 216.568 313.799 L 236.978 309.947 L 218.38 211.349" stroke-linecap="round" /></g><g transform="matrix(1 0 0 1 6.83 132.83)"  ><path style="stroke: rgb(142,97,241); stroke-width: 0.676; stroke-dasharray: none; stroke-linecap: round; stroke-dashoffset: 0; stroke-linejoin: round; stroke-miterlimit: 4; fill: none; fill-rule: nonzero; opacity: 1;"  transform=" translate(-197.83, -317.33)" d="M 188.876 319.019 L 206.78 315.645" stroke-linecap="round" /></g><g transform="matrix(1 0 0 1 -7.01 135.44)"  ><path style="stroke: rgb(142,97,241); stroke-width: 0.676; stroke-dasharray: none; stroke-linecap: round; stroke-dashoffset: 0; stroke-linejoin: round; stroke-miterlimit: 4; fill: none; fill-rule: nonzero; opacity: 1;"  transform=" translate(-183.99, -319.94)" d="M 179.094 320.865 L 188.876 319.025" stroke-linecap="round" /></g><g transform="matrix(1 0 0 1 -20.86 138.06)"  ><path style="stroke: rgb(142,97,241); stroke-width: 0.676; stroke-dasharray: none; stroke-linecap: round; stroke-dashoffset: 0; stroke-linejoin: round; stroke-miterlimit: 4; fill: none; fill-rule: nonzero; opacity: 1;"  transform=" translate(-170.14, -322.56)" d="M 161.186 324.245 L 179.094 320.871" stroke-linecap="round" /></g><g transform="matrix(1 0 0 1 -48.55 143.28)"  ><path style="stroke: rgb(142,97,241); stroke-width: 0.676; stroke-dasharray: none; stroke-linecap: round; stroke-dashoffset: 0; stroke-linejoin: round; stroke-miterlimit: 4; fill: none; fill-rule: nonzero; opacity: 1;"  transform=" translate(-142.45, -327.78)" d="M 133.494 329.471 L 151.402 326.091" stroke-linecap="round" /></g><g transform="matrix(1 0 0 1 -76.55 148.56)"  ><path style="stroke: rgb(142,97,241); stroke-width: 0.676; stroke-dasharray: none; stroke-linecap: round; stroke-dashoffset: 0; stroke-linejoin: round; stroke-miterlimit: 4; fill: none; fill-rule: nonzero; opacity: 1;"  transform=" translate(-114.45, -333.06)" d="M 105.188 334.811 L 123.712 331.317" stroke-linecap="round" /></g><g transform="matrix(1 0 0 1 -139.96 120.86)"  ><path style="stroke: rgb(142,97,241); stroke-width: 0.676; stroke-dasharray: none; stroke-linecap: round; stroke-dashoffset: 0; stroke-linejoin: round; stroke-miterlimit: 4; fill: none; fill-rule: nonzero; opacity: 1;"  transform=" translate(-51.04, -305.36)" d="M 61.352 309.107 L 42.8 312.609 L 40.726 301.603 L 59.276 298.109 L 61.352 309.107 Z" stroke-linecap="round" /></g><g transform="matrix(1 0 0 1 -136.87 137.26)"  ><path style="stroke: rgb(142,97,241); stroke-width: 0.676; stroke-dasharray: none; stroke-linecap: round; stroke-dashoffset: 0; stroke-linejoin: round; stroke-miterlimit: 4; fill: none; fill-rule: nonzero; opacity: 1;"  transform=" translate(-54.13, -321.76)" d="M 64.448 325.509 L 45.896 329.011 L 43.822 318.005 L 62.372 314.509 L 64.448 325.509 Z" stroke-linecap="round" /></g><g transform="matrix(1 0 0 1 -133.77 153.66)"  ><path style="stroke: rgb(142,97,241); stroke-width: 0.676; stroke-dasharray: none; stroke-linecap: round; stroke-dashoffset: 0; stroke-linejoin: round; stroke-miterlimit: 4; fill: none; fill-rule: nonzero; opacity: 1;"  transform=" translate(-57.23, -338.16)" d="M 67.538 341.911 L 48.994 345.413 L 46.918 334.405 L 65.462 330.911 L 67.538 341.911 Z" stroke-linecap="round" /></g><g transform="matrix(1 0 0 1 -71.9 95.51)"  ><path style="stroke: rgb(142,97,241); stroke-width: 0.676; stroke-dasharray: none; stroke-linecap: round; stroke-dashoffset: 0; stroke-linejoin: round; stroke-miterlimit: 4; fill: none; fill-rule: nonzero; opacity: 1;"  transform=" translate(-119.1, -280.01)" d="M 133.494 329.471 L 123.712 331.317 L 121.636 320.311 L 104.7 230.557 L 114.49 228.711 L 131.418 318.465 L 133.494 329.471 Z" stroke-linecap="round" /></g><g transform="matrix(1 0 0 1 -44.21 90.29)"  ><path style="stroke: rgb(142,97,241); stroke-width: 0.676; stroke-dasharray: none; stroke-linecap: round; stroke-dashoffset: 0; stroke-linejoin: round; stroke-miterlimit: 4; fill: none; fill-rule: nonzero; opacity: 1;"  transform=" translate(-146.79, -274.79)" d="M 161.186 324.245 L 151.402 326.091 L 142.1 276.793 L 132.392 225.331 L 142.182 223.485 L 151.89 274.947 L 161.186 324.245 Z" stroke-linecap="round" /></g><g transform="matrix(1 0 0 1 -16.52 85.07)"  ><path style="stroke: rgb(142,97,241); stroke-width: 0.676; stroke-dasharray: none; stroke-linecap: round; stroke-dashoffset: 0; stroke-linejoin: round; stroke-miterlimit: 4; fill: none; fill-rule: nonzero; opacity: 1;"  transform=" translate(-174.48, -269.57)" d="M 188.876 319.025 L 179.094 320.871 L 179.094 320.865 L 173.922 293.463 L 160.084 220.111 L 169.866 218.265 L 183.706 291.619 L 188.876 319.019 L 188.876 319.025 Z" stroke-linecap="round" /></g><g transform="matrix(1 0 0 1 11.17 79.84)"  ><path style="stroke: rgb(142,97,241); stroke-width: 0.676; stroke-dasharray: none; stroke-linecap: round; stroke-dashoffset: 0; stroke-linejoin: round; stroke-miterlimit: 4; fill: none; fill-rule: nonzero; opacity: 1;"  transform=" translate(-202.17, -264.34)" d="M 216.568 313.799 L 206.78 315.645 L 194.462 250.317 L 187.774 214.885 L 197.558 213.039 L 204.244 248.471 L 216.568 313.799 Z" stroke-linecap="round" /></g><g transform="matrix(1 0 0 1 -64.47 134.89)"  ><path style="stroke: rgb(142,97,241); stroke-width: 0.676; stroke-dasharray: none; stroke-linecap: round; stroke-dashoffset: 0; stroke-linejoin: round; stroke-miterlimit: 4; fill: none; fill-rule: nonzero; opacity: 1;"  transform=" translate(-126.53, -319.39)" d="M 121.636 320.311 L 131.418 318.465" stroke-linecap="round" /></g><g transform="matrix(1 0 0 1 -44.01 91.37)"  ><path style="stroke: rgb(142,97,241); stroke-width: 0.676; stroke-dasharray: none; stroke-linecap: round; stroke-dashoffset: 0; stroke-linejoin: round; stroke-miterlimit: 4; fill: none; fill-rule: nonzero; opacity: 1;"  transform=" translate(-146.99, -275.87)" d="M 142.1 276.793 L 151.882 274.947" stroke-linecap="round" /></g><g transform="matrix(1 0 0 1 -12.19 108.04)"  ><path style="stroke: rgb(142,97,241); stroke-width: 0.676; stroke-dasharray: none; stroke-linecap: round; stroke-dashoffset: 0; stroke-linejoin: round; stroke-miterlimit: 4; fill: none; fill-rule: nonzero; opacity: 1;"  transform=" translate(-178.81, -292.54)" d="M 173.922 293.463 L 183.706 291.619" stroke-linecap="round" /></g><g transform="matrix(1 0 0 1 8.35 64.89)"  ><path style="stroke: rgb(142,97,241); stroke-width: 0.676; stroke-dasharray: none; stroke-linecap: round; stroke-dashoffset: 0; stroke-linejoin: round; stroke-miterlimit: 4; fill: none; fill-rule: nonzero; opacity: 1;"  transform=" translate(-199.35, -249.39)" d="M 194.462 250.317 L 204.244 248.471" stroke-linecap="round" /></g><g transform="matrix(1 0 0 1 132.87 42.22)"  ><path style="stroke: rgb(142,97,241); stroke-width: 0.676; stroke-dasharray: none; stroke-linecap: round; stroke-dashoffset: 0; stroke-linejoin: round; stroke-miterlimit: 4; fill: none; fill-rule: nonzero; opacity: 1;"  transform=" translate(-323.87, -226.72)" d="M 364.268 186.321 L 323.872 226.717 L 283.478 267.111" stroke-linecap="round" /></g><g transform="matrix(1 0 0 1 112.67 22.02)"  ><path style="stroke: rgb(142,97,241); stroke-width: 0.676; stroke-dasharray: none; stroke-linecap: round; stroke-dashoffset: 0; stroke-linejoin: round; stroke-miterlimit: 4; fill: none; fill-rule: nonzero; opacity: 1;"  transform=" translate(-303.68, -206.52)" d="M 283.478 186.321 L 323.872 226.717" stroke-linecap="round" /></g><g transform="matrix(1 0 0 1 -122.32 -175.08)"  ><path style="stroke: rgb(142,97,241); stroke-width: 0.676; stroke-dasharray: none; stroke-linecap: round; stroke-dashoffset: 0; stroke-linejoin: round; stroke-miterlimit: 4; fill: none; fill-rule: nonzero; opacity: 1;"  transform=" translate(-68.68, -9.42)" d="M 71.12 18.4771 L 66.232 0.357101" stroke-linecap="round" /></g><g transform="matrix(1 0 0 1 -97.71 -174.15)"  ><path style="stroke: rgb(142,97,241); stroke-width: 0.676; stroke-dasharray: none; stroke-linecap: round; stroke-dashoffset: 0; stroke-linejoin: round; stroke-miterlimit: 4; fill: none; fill-rule: nonzero; opacity: 1;"  transform=" translate(-93.29, -10.35)" d="M 92.302 18.4771 L 94.276 2.23114" stroke-linecap="round" /></g><g transform="matrix(1 0 0 1 -143.96 -159.79)"  ><path style="stroke: rgb(142,97,241); stroke-width: 0.676; stroke-dasharray: none; stroke-linecap: round; stroke-dashoffset: 0; stroke-linejoin: round; stroke-miterlimit: 4; fill: none; fill-rule: nonzero; opacity: 1;"  transform=" translate(-47.04, -24.71)" d="M 52.42 30.9429 L 41.658 18.4769" stroke-linecap="round" /></g></g></g></svg>